<?xml version="1.0" encoding="utf-8"?>
<!-- Generator: Adobe Illustrator 22.0.1, SVG Export Plug-In . SVG Version: 6.00 Build 0)  -->
<svg version="1.1" id="Camada_1" xmlns="http://www.w3.org/2000/svg" xmlns:xlink="http://www.w3.org/1999/xlink" x="0px" y="0px"
	 width="48.2px" height="45px" viewBox="0 0 48.2 45" style="enable-background:new 0 0 48.2 45;" xml:space="preserve">
<style type="text/css">
	.st0{fill:#F97C0B;}
</style>
<path class="st0" d="M42.6,5.9l-3.8-3.8c-0.4-0.4-1-0.4-1.3,0s-0.4,1,0,1.3l3.1,3.1l-3.1,3.1c-0.2,0.2-0.3,0.4-0.3,0.7v2.8
	c0,2.1,1.7,3.8,3.8,3.8v15.9c0,0.5-0.4,0.9-0.9,0.9s-0.9-0.4-0.9-0.9v-1.9c0-1.6-1.3-2.8-2.8-2.8h-0.9V3.8c0-2.1-1.7-3.8-3.7-3.8
	H12.9c-2.1,0-3.8,1.7-3.8,3.8v33.8c-2.1,0-3.8,1.7-3.8,3.8v2.8c0,0.5,0.4,0.9,0.9,0.9h31.9c0.5,0,0.9-0.4,0.9-0.9v-2.8
	c0-2.1-1.7-3.8-3.8-3.8V30h0.9c0.5,0,0.9,0.4,0.9,0.9v1.9c0,1.6,1.3,2.8,2.8,2.8s2.8-1.3,2.8-2.8V6.6C42.8,6.3,42.8,6.1,42.6,5.9z
	 M12.9,4.7c0-0.5,0.4-0.9,0.9-0.9h16.9c0.5,0,0.9,0.4,0.9,0.9V16c0,0.5-0.4,0.9-0.9,0.9H13.8c-0.5,0-0.9-0.4-0.9-0.9V4.7z"/>
</svg>
