<?xml version="1.0" encoding="utf-8"?>
<!-- Generator: Adobe Illustrator 22.0.1, SVG Export Plug-In . SVG Version: 6.00 Build 0)  -->
<svg version="1.1" id="Camada_1" xmlns="http://www.w3.org/2000/svg" xmlns:xlink="http://www.w3.org/1999/xlink" x="0px" y="0px"
	 width="48.2px" height="45px" viewBox="0 0 48.2 45" style="enable-background:new 0 0 48.2 45;" xml:space="preserve">
<style type="text/css">
	.st0{fill:#F97C0B;}
</style>
<g>
	<path class="st0" d="M26.9,7.1c2.8,0,5.4,0,8,0c1.2,0,2.3,0.2,2.2,1.6c0,1.3-1.1,1.6-2.2,1.5c-2.6,0-5.2,0-7.9,0c0,1.6,0,3.1,0,4.7
		c2.1,0,4.1,0,6.1,0c0.6,0,1.2,0,1.8,0c1.2,0,2.3,0.2,2.2,1.6c0,1.3-1.1,1.5-2.2,1.5c-2.1,0-4.2,0-6.2,0c-0.5,0-1,0-1.7,0
		c0,1.6,0,3.1,0,4.7c2.3,0,4.6,0,6.9,0c0.5,0,1.2-0.2,1.6,0.1c0.6,0.4,1.1,1,1.7,1.6c-0.6,0.5-1.1,1.4-1.7,1.5
		c-2.3,0.2-4.7,0.1-7,0.1c-0.4,0-0.8,0-1.3,0c-0.3,1.3-0.2,2.3,0.8,3.3c2,1.9,1.8,5.1-0.2,7c-2,2-5.2,1.9-7.2,0c-2-2-2.1-5.1-0.1-7
		c0.8-0.8,1-1.5,1-2.5c0-7.8,0-15.5,0-23.3c0-2,0.8-3.2,2.4-3.4c1.8-0.2,3.1,1,3.2,2.9C26.9,4.3,26.9,5.6,26.9,7.1z"/>
	<path class="st0" d="M1.8,43.5c-0.4-3.5,1.7-5.1,4.8-3.8c0.5,0.2,1,0.6,1.5,0.9c2.1,1.4,4,1.5,6,0c2.2-1.6,4.3-1.7,6.5-0.2
		c2.4,1.6,4.7,1.6,7.1,0c2.4-1.6,4-1.5,6.3,0.1c2.2,1.5,4,1.5,6.3,0c0.4-0.3,0.8-0.6,1.2-0.8c1.5-0.7,3.2-0.7,4.4,0.4
		c0.7,0.6,0.6,2,0.8,3.2c-2.6-1.4-4.8-0.9-7,0.7C38,45.4,36,45.3,34.3,44c-2.3-1.8-4.5-1.8-6.9-0.2c-2.2,1.5-4.5,1.5-6.7,0
		c-2.3-1.6-4.5-1.6-6.7,0.1c-1.9,1.4-3.9,1.4-5.7,0.1C6.2,42.4,4.2,42.1,1.8,43.5z"/>
	<path class="st0" d="M49.6,37.3c-1.2-0.6-2.1-0.9-3-1.5c-2.4-1.6-4.1-1.7-6.4,0c-2.4,1.7-4.7,1.7-6.7-0.4c-0.6-0.6-0.4-1.9-0.6-2.8
		c0.4-0.1,0.5-0.2,0.5-0.2c2.5,1.9,4.9,1.8,7.4-0.1c1.6-1.2,3.4-1.1,5.1-0.1c1.2,0.7,2.4,1.3,3.7,2.1C49.6,35,49.6,36,49.6,37.3z"/>
	<path class="st0" d="M15.3,32.6c-0.2,1-0.2,2.3-0.8,3c-1.4,1.5-3.4,2-5.4,1c-0.4-0.2-0.8-0.5-1.2-0.8c-2.3-1.6-4-1.5-6.3,0
		c-0.8,0.6-1.8,0.9-3,1.5c0-1.3,0-2.3,0-3c1.3-0.7,2.5-1.3,3.6-2c1.6-1,3.4-1.2,4.8-0.1c2.6,1.9,5.1,2.5,7.8,0
		C15,32.3,15.1,32.4,15.3,32.6z"/>
</g>
</svg>
