<?xml version="1.0" encoding="utf-8"?>
<!-- Generator: Adobe Illustrator 22.0.1, SVG Export Plug-In . SVG Version: 6.00 Build 0)  -->
<svg version="1.1" id="Camada_1" xmlns="http://www.w3.org/2000/svg" xmlns:xlink="http://www.w3.org/1999/xlink" x="0px" y="0px"
	 width="48.2px" height="45px" viewBox="0 0 48.2 45" style="enable-background:new 0 0 48.2 45;" xml:space="preserve">
<style type="text/css">
	.st0{fill:#F97C0B;}
</style>
<g>
	<path class="st0" d="M36,14.1c0.8,0,1.4,0.4,1.8,1.1s0.4,1.4,0,2.1L22.4,43.9c-0.4,0.7-1,1.1-1.8,1.1c-0.7,0-1.3-0.3-1.7-0.8
		s-0.5-1.1-0.4-1.8l4-17.1H12.1c-0.6,0-1.2-0.2-1.6-0.7s-0.6-1-0.5-1.7l2.8-21.1c0.1-0.5,0.3-1,0.7-1.3S14.4,0,15,0h12
		c0.7,0,1.3,0.3,1.7,0.8s0.5,1.2,0.4,1.8l-3,11.4L36,14.1L36,14.1z"/>
</g>
</svg>
