<?xml version="1.0" encoding="utf-8"?>
<!-- Generator: Adobe Illustrator 22.0.1, SVG Export Plug-In . SVG Version: 6.00 Build 0)  -->
<svg version="1.1" id="Camada_1" xmlns="http://www.w3.org/2000/svg" xmlns:xlink="http://www.w3.org/1999/xlink" x="0px" y="0px"
	 width="48.2px" height="45px" viewBox="0 0 48.2 45" style="enable-background:new 0 0 48.2 45;" xml:space="preserve">
<style type="text/css">
	.st0{fill:#F97C0B;}
</style>
<g>
	<path class="st0" d="M2.8,37.8c-1.6,1.6-1.6,4.3,0,6c0.8,0.8,1.9,1.2,3,1.2c1.1,0,2.2-0.4,3-1.2l13.8-13.8l-6-6L2.8,37.8z"/>
	<path class="st0" d="M37.4,12.2l6-3.1l3.2-6.1L43.7,0l-6.1,3.2l-3.1,6l-7.3,7.3l3,3L37.4,12.2z"/>
	<path class="st0" d="M38.7,28.2l-0.6-0.1c-1,0-2,0.2-2.9,0.5L18,11.3c0.3-0.9,0.5-1.9,0.5-2.9l-0.1-0.6C18.2,3.5,14.5,0,10.1,0
		C8.8,0,7.6,0.3,6.5,0.8l5.6,5.6c0.3,0.3,0.5,0.6,0.6,1c0.4,1,0.2,2.2-0.6,3c-0.6,0.5-1.3,0.8-2,0.8c-0.3,0-0.7-0.1-1-0.2
		c-0.4-0.1-0.7-0.3-1-0.6L2.5,4.8C2,5.9,1.7,7.1,1.7,8.4c0,4.5,3.5,8.1,7.9,8.4l0.6,0.1c1,0,2-0.2,2.9-0.5l17.3,17.3
		c-0.3,0.9-0.5,1.9-0.5,2.9l0.1,0.6c0.3,4.4,3.9,7.9,8.4,7.9c1.3,0,2.5-0.3,3.6-0.8l-5.6-5.6c-0.3-0.3-0.5-0.6-0.6-1
		c-0.4-1-0.2-2.2,0.6-3c0.5-0.5,1.3-0.8,2-0.8c0.3,0,0.7,0.1,1,0.2c0.4,0.1,0.7,0.3,1,0.6l5.6,5.6c0.5-1.1,0.8-2.3,0.8-3.6
		C46.6,32.1,43.1,28.5,38.7,28.2L38.7,28.2z"/>
</g>
</svg>
