<?xml version="1.0" encoding="utf-8"?>
<!-- Generator: Adobe Illustrator 22.0.1, SVG Export Plug-In . SVG Version: 6.00 Build 0)  -->
<svg version="1.1" id="Camada_1" xmlns="http://www.w3.org/2000/svg" xmlns:xlink="http://www.w3.org/1999/xlink" x="0px" y="0px"
	 width="260.16px" height="38px" viewBox="0 0 260.16 38" enable-background="new 0 0 260.16 38" xml:space="preserve">
<g>
	<path fill="#00507F" d="M120.381,24.28c0,6.905-3.942,13.652-14.596,13.652c-8.735,0-14.112-4.936-14.112-13.339
		c0-9.219,7.192-13.603,13.989-13.603C115.617,10.991,120.381,17.538,120.381,24.28 M99.571,24.16
		c0,4.707,1.378,10.522,6.575,10.522c4.946,0,6.425-5.046,6.425-10.418c0-6.52-2.93-9.753-6.472-9.753
		C102.552,14.51,99.571,17.821,99.571,24.16"/>
	<path fill="#00507F" d="M64.202,33.684V3.604h3.596c11.727,0,12.455,10.684,12.455,15.029c0,7.577-2.85,15.051-9.88,15.051H64.202
		L64.202,33.684z M71.384,37.29c12.305,0,17.175-9.678,17.175-18.834c0-10.927-6.769-18.454-17.54-18.454L53.322,0l0.095,1.86
		l2.528,0.663v32.242l-2.528,0.668l-0.095,1.857L71.384,37.29L71.384,37.29z"/>
	<path fill="#00507F" d="M222.709,4.439c0-2.453,2-4.439,4.452-4.439c2.457,0,4.44,1.986,4.44,4.439c0,2.45-1.983,4.442-4.44,4.442
		C224.709,8.882,222.709,6.89,222.709,4.439"/>
	<path fill="#00507F" d="M161.628,21.45c0-6.976-8.142-5.796-10.81-3.83v17.426l2.247,0.664l0.093,1.58h-11.871l0.093-1.58
		l2.246-0.664V21.543c0-6.968-8.104-5.948-10.773-3.984v17.486l2.248,0.664l0.093,1.58h-11.843l0.094-1.58l2.248-0.664
		l-0.002-19.408l-3.315-1.133l-0.095-1.561l10.572-1.34v3.031c2.913-2.231,5.819-3.546,9.651-3.529
		c3.02,0.011,6.302,1.329,7.596,3.723c2.918-2.227,6.208-3.74,10.801-3.748c4.327-0.009,7.953,2.584,7.953,7.314v16.651l2.245,0.664
		l0.093,1.58h-11.898l0.093-1.58l2.246-0.664L161.628,21.45L161.628,21.45z"/>
	<path fill="#00507F" d="M181.311,22.129l10.903-0.711c0-5.255-2.197-6.997-5.136-6.997
		C184.376,14.421,181.626,16.854,181.311,22.129 M199.003,24.908h-17.706c-0.28,6.622,3.588,8.312,8.222,8.312
		c3.613,0,6.332-0.843,8.677-2.475l-0.344,2.953c-1.469,1.754-5.712,4.235-11.254,4.235c-7.664,0-13.02-5.977-13.02-13.246
		c0-8.78,6.663-13.557,13.149-13.557c7.176,0,12.316,4.669,12.316,12.62l-0.04,0.784L199.003,24.908L199.003,24.908z"/>
	<polygon fill="#00507F" points="223.639,15.563 220.326,14.505 220.23,12.943 230.933,11.603 230.942,35.045 233.186,35.709 
		233.283,37.29 221.306,37.29 221.394,35.709 223.643,35.045 	"/>
	<path fill="#00507F" d="M259.513,18.246c-3.515-3.049-6.531-3.593-9.434-3.418c-4.576,0.276-6.904,4.793-6.904,9.248
		c0,4.891,2.566,9.147,8.298,9.147c3.152,0,6.282-0.724,8.685-2.436l-0.366,2.91C257.088,36.544,252.449,38,248.901,38
		c-8.224,0-13.384-6.122-13.384-13.23c0-8.06,5.626-13.639,13.656-13.639c2.707,0,6.39,0.472,9.992,3.165L259.513,18.246
		L259.513,18.246z"/>
	<path fill="#00507F" d="M203.799,12.515l-3.428,0.428l0.095,1.561l3.315,1.133v14.497c0,2.502,0.795,7.779,7.903,7.846
		c3.155,0,5.407-1.117,7.145-2.637l0.236-1.889c-3.701,0.778-5.204,0.703-6.462,0.069c-1.264-0.623-1.46-2.104-1.46-3.984V15.555
		h6.692l-0.168-2.667h-6.525l0.004-8.543L203.799,12.515L203.799,12.515z"/>
	<path fill="#00507F" d="M12.919,28.25V9.043c-3.269,1.952-5.457,5.519-5.457,9.601C7.461,22.731,9.65,26.296,12.919,28.25
		L12.919,28.25z"/>
	<path fill="#00507F" d="M24.381,9.043V28.25c3.268-1.953,5.459-5.519,5.459-9.606C29.84,14.561,27.649,10.995,24.381,9.043
		L24.381,9.043z"/>
	<path fill="#00507F" d="M31.471,0H5.829C2.625,0,0.001,2.62,0.001,5.826v25.638c0,3.207,2.623,5.826,5.827,5.826h25.643
		c3.205,0,5.826-2.619,5.826-5.826V5.826C37.297,2.62,34.677,0,31.471,0L31.471,0z M16.553,33.163
		c-7.114-1.021-12.588-7.12-12.588-14.52c0-7.396,5.474-13.496,12.588-14.517V33.163L16.553,33.163z M20.749,33.161V4.127
		c7.112,1.02,12.587,7.121,12.587,14.517C33.336,26.043,27.861,32.142,20.749,33.161L20.749,33.161z"/>
</g>
</svg>
