<?xml version="1.0" encoding="utf-8"?>
<!-- Generator: Adobe Illustrator 22.0.1, SVG Export Plug-In . SVG Version: 6.00 Build 0)  -->
<svg version="1.1" id="Camada_1" xmlns="http://www.w3.org/2000/svg" xmlns:xlink="http://www.w3.org/1999/xlink" x="0px" y="0px"
	 width="95.327px" height="38px" viewBox="0 0 95.327 38" enable-background="new 0 0 95.327 38" xml:space="preserve">
<g>
	<polygon fill="#B96944" points="21.09,32.095 21.09,37.578 95.327,37.578 95.327,32.095 	"/>
	<polygon fill="#B96944" points="35.01,5.943 35.01,30.408 39.228,30.408 39.228,5.943 	"/>
	<polygon fill="#B96944" points="27.839,5.943 27.839,30.408 31.635,30.408 31.635,18.597 34.588,18.597 34.588,15.645 
		31.635,15.645 31.635,9.318 34.588,9.318 34.588,5.943 	"/>
	<path fill="#B96944" d="M45.554,25.346h-1.687l-0.422,5.062h-3.374L42.18,5.943h5.062l2.531,24.464h-3.796L45.554,25.346
		L45.554,25.346z M44.711,14.801L44.711,14.801l0.844,7.171H44.29L44.711,14.801L44.711,14.801z"/>
	<polygon fill="#B96944" points="50.616,5.943 50.616,30.408 54.412,30.408 54.412,16.488 56.099,30.408 58.63,30.408 
		60.739,16.488 60.739,30.408 64.114,30.408 64.114,5.943 58.63,5.943 57.365,16.91 56.099,5.943 	"/>
	<polygon fill="#B96944" points="65.379,5.943 65.379,30.408 68.753,30.408 68.753,16.488 70.441,30.408 72.971,30.408 
		75.08,16.488 75.08,30.408 78.455,30.408 78.455,5.943 72.971,5.943 71.706,16.91 70.441,5.943 	"/>
	<path fill="#B96944" d="M83.938,14.801L83.938,14.801l0.844,7.171h-1.265L83.938,14.801L83.938,14.801z M84.782,25.346h-1.687
		l-0.422,5.062h-3.374l2.109-24.464h5.062L89,30.408h-3.374L84.782,25.346L84.782,25.346z"/>
	<path fill="#B96944" d="M13.92,37.578c-5.483-9.28-12.232-22.355-3.796-30.791c2.953-2.531,7.171-2.531,10.545-2.109
		c0.422,0,0.422,0,0.422,0c-1.687-1.687-5.483-3.374-7.171-3.796C11.389,0.038,8.858-0.384,5.905,0.46C0.844,2.147,0,8.052,0,11.427
		C0,19.863,8.858,32.517,13.92,38V37.578L13.92,37.578z"/>
	<path fill="#B96944" d="M13.92,37.578c-5.483-9.28-12.232-22.355-3.796-30.791c2.953-2.531,7.171-2.531,10.545-2.109h0.422
		c-1.687-1.687-5.483-3.374-7.171-3.796C11.389,0.038,8.858-0.384,5.905,0.46C0.844,2.147,0,8.052,0,11.427
		C0,19.863,8.858,32.517,13.92,38V37.578L13.92,37.578z"/>
	<path fill="#B96944" d="M16.45,16.91c0,2.109-1.687,3.796-3.796,3.796c-2.531,0-4.218-1.687-4.218-3.796
		c0-2.531,1.687-4.218,4.218-4.218C14.763,12.692,16.45,14.379,16.45,16.91L16.45,16.91z"/>
</g>
</svg>
