<?xml version="1.0" encoding="utf-8"?>
<!-- Generator: Adobe Illustrator 22.0.1, SVG Export Plug-In . SVG Version: 6.00 Build 0)  -->
<svg version="1.1" id="Camada_1" xmlns="http://www.w3.org/2000/svg" xmlns:xlink="http://www.w3.org/1999/xlink" x="0px" y="0px"
	 width="76.271px" height="38px" viewBox="0 0 76.271 38" enable-background="new 0 0 76.271 38" xml:space="preserve">
<g>
	<polygon fill="#4BA6DE" points="0.047,38 57.71,38 57.71,0.003 0.047,0.003 	"/>
</g>
<g>
	<polygon fill="#0074C5" points="52.367,7.602 47.902,0 65.253,0 76.271,18.794 65.218,38 47.807,38 52.23,30.539 0,30.539 0,7.602 
			"/>
</g>
<g>
	<path fill="#FFFFFF" d="M10.681,21.192c0,1.246,0.157,5.26-4.049,5.259c-1.341,0-2.218-0.535-2.937-0.876v-3.392
		c0.405,0.482,1.577,1.131,2.275,1.131c1.574,0,1.385-1.3,1.36-2.121V10.94h3.352v10.252H10.681z"/>
</g>
<g>
	<path fill="#FFFFFF" d="M19.141,10.94l3.929,15.157h-3.306l-0.63-2.414h-3.676l-0.607,2.414h-3.33l4.34-15.157L19.141,10.94
		L19.141,10.94z M17.402,14.84h-0.045l-1.358,6.332h2.64L17.402,14.84L17.402,14.84z"/>
</g>
<g>
	<path fill="#FFFFFF" d="M24.551,26.097V10.94h3.285c3.263,0,5.892,0.69,5.892,3.837c0,2.12-0.86,2.911-2.12,3.675
		c1.395,0.603,2.346,1.696,2.346,3.562c0,2.799-1.302,4.084-4.947,4.084L24.551,26.097L24.551,26.097z M27.903,13.453v3.868
		c1.26,0,2.376-0.34,2.376-2.064C30.279,13.758,29.185,13.392,27.903,13.453L27.903,13.453z M27.903,19.667v3.918
		c1.35,0.06,2.659-0.158,2.659-2.091C30.562,20.034,29.231,19.626,27.903,19.667L27.903,19.667z"/>
</g>
<g>
	<path fill="#FFFFFF" d="M42.718,15.172c-0.675-0.523-1.64-1.471-2.347-1.498c-0.735-0.028-1.527,0.481-1.498,1.159
		c0.086,2.062,4.579,2.74,4.579,6.841c0,2.694-1.6,4.777-4.749,4.777c-0.945,0-2.365-0.608-3.13-1.11l0.02-3.639
		c0.787,0.482,1.922,1.611,2.912,1.611c1.079,0,1.695-0.408,1.696-1.413c0.001-0.876-1.595-2.017-2.289-2.685
		c-1.555-1.498-2.46-2.566-2.46-4.777c0-2.392,2.007-3.844,4.268-3.844c1.328,0,2.046,0.367,2.968,0.85L42.718,15.172L42.718,15.172
		z"/>
</g>
<g>
	<path fill="#FFFFFF" d="M54.138,14.55c-0.621-0.452-1.385-0.82-2.177-0.82c-2.883,0-3.533,2.36-3.533,4.692
		c0,2.251,0.468,4.89,3.393,4.89c0.819,0,2.006-0.537,2.346-0.876v3.448c-0.424,0.283-1.385,0.622-2.657,0.622
		c-4.836,0-6.614-4.15-6.614-8.13c0-3.759,1.822-7.785,6.388-7.785c1.272,0,2.29,0.396,2.855,0.763L54.138,14.55L54.138,14.55z"/>
</g>
<g>
	<path fill="#FFFFFF" d="M66.986,18.537c0,5.8-2.763,7.972-5.548,7.972c-3.155,0-5.547-2.173-5.547-7.972
		c0-5.8,2.391-7.973,5.547-7.973C64.222,10.564,66.986,12.737,66.986,18.537L66.986,18.537z M61.438,23.403
		c2.073,0,2.08-3.636,2.08-4.866c0-1.373-0.007-4.866-2.08-4.866c-2.072,0-2.079,3.493-2.079,4.866
		C59.359,19.767,59.366,23.403,61.438,23.403L61.438,23.403z"/>
</g>
<g>
	<path fill="#FFFFFF" d="M68.495,11.71c0,0.572-0.464,1.033-1.033,1.033c-0.572,0.003-1.032-0.46-1.032-1.029
		c-0.004-0.572,0.46-1.036,1.028-1.036C68.031,10.678,68.495,11.142,68.495,11.71L68.495,11.71z M68.63,11.71
		c0-0.643-0.525-1.168-1.168-1.168c-0.647,0-1.171,0.525-1.167,1.168c0,0.647,0.521,1.168,1.167,1.168
		C68.105,12.875,68.63,12.357,68.63,11.71L68.63,11.71z M67.025,12.319h0.166v-0.552h0.423c0.268,0,0.193,0.237,0.22,0.389
		l0.027,0.162h0.196c-0.071-0.112-0.047-0.139-0.061-0.308c-0.02-0.223-0.024-0.244-0.156-0.328
		c0.125-0.095,0.176-0.156,0.169-0.322c-0.017-0.291-0.21-0.328-0.41-0.328h-0.575L67.025,12.319L67.025,12.319z M67.604,11.179
		c0.102,0,0.26,0.027,0.237,0.247c-0.017,0.166-0.126,0.196-0.237,0.196h-0.413v-0.443H67.604L67.604,11.179z"/>
</g>
</svg>
