<?xml version="1.0" encoding="utf-8"?>
<!-- Generator: Adobe Illustrator 22.0.1, SVG Export Plug-In . SVG Version: 6.00 Build 0)  -->
<svg version="1.1" id="Camada_1" xmlns="http://www.w3.org/2000/svg" xmlns:xlink="http://www.w3.org/1999/xlink" x="0px" y="0px"
	 width="155.443px" height="38px" viewBox="0 0 155.443 38" enable-background="new 0 0 155.443 38" xml:space="preserve">
<g>
	<path fill-rule="evenodd" clip-rule="evenodd" fill="#1F1713" d="M7.058,37.408V13.964H0V3.55h26.801v10.414h-7.206v23.444H7.058
		L7.058,37.408z M30.058,37.408V3.55h12.586v11.253h4.985V3.55H59.77v33.858H47.629V25.809h-4.985v11.599H30.058L30.058,37.408z
		 M64.558,3.55h12.931v18.064c0,1.875-0.395,5.133,2.32,5.133c2.912,0,2.419-3.257,2.419-5.133V3.55h12.931v18.36
		c0,5.33-1.283,9.328-3.751,12.043C88.89,36.667,84.695,38,79.76,38c-4.886,0-8.933-1.333-11.451-4.047
		c-2.468-2.714-3.751-6.712-3.751-12.043V3.55L64.558,3.55z M120.725,26.352V3.55h22.704v8.242h-10.217v3.948h8.045v6.169h-8.045
		v4.442h10.315v11.056c-14.56,0-29.12,0-43.68,0V3.55h12.388v22.802H120.725L120.725,26.352z"/>
	<path fill-rule="evenodd" clip-rule="evenodd" fill="#FFFFFF" d="M110.558,29.609c0.099-0.345,0.395-0.592,0.79-0.691
		c0.345-0.049,0.691,0,0.987,0.198c0.198,0.197,0.296,0.444,0.296,0.691v1.234l0.691-1.431c0.148-0.197,0.247-0.395,0.494-0.493
		c0.296-0.198,0.691-0.247,1.086-0.148c0.296,0.099,0.494,0.296,0.592,0.592c0,0.049,0.049,0.099,0.049,0.197l0.099,1.333
		l0.592-1.382c0.099-0.296,0.247-0.494,0.543-0.691c0.296-0.099,0.642-0.148,0.987-0.049c0.247,0.099,0.444,0.296,0.543,0.543
		c0.148-0.247,0.395-0.395,0.691-0.494c0.197,0,0.345-0.049,0.543-0.049h1.431c0.345,0,0.691,0.049,0.938,0.296l0.099,0.099
		c0.296,0.346,0.148,0.889-0.197,1.185c-0.198,0.148-0.444,0.247-0.74,0.296c-0.296,0-0.642,0-0.987,0v0.049
		c0.444,0,0.938,0,1.333,0.296c0.148,0.099,0.197,0.247,0.247,0.395c0.049,0.345-0.099,0.691-0.395,0.938
		c-0.296,0.198-0.642,0.247-1.036,0.247h-0.493l-0.049,0.099h0.592c0.444,0.049,0.889,0.099,1.135,0.543
		c0.099,0.296,0.049,0.642-0.198,0.888c-0.148,0.198-0.296,0.296-0.543,0.395c-0.198,0.049-0.444,0.049-0.642,0.049h-1.53h-0.148
		c-0.395-0.049-0.74-0.148-0.888-0.543c-0.099-0.198-0.099-0.444-0.049-0.642l0.543-2.764l-1.431,3.06
		c-0.148,0.296-0.296,0.592-0.592,0.74c-0.346,0.247-0.839,0.247-1.234,0.148c-0.049,0-0.099-0.049-0.148-0.049
		c-0.395-0.197-0.543-0.493-0.543-0.888l-0.148-1.185l-0.592,1.283c-0.148,0.247-0.296,0.444-0.493,0.592
		c-0.099,0.049-0.148,0.099-0.198,0.148c-0.444,0.247-1.086,0.247-1.48-0.049c-0.198-0.148-0.296-0.345-0.346-0.592
		c-0.049-0.099-0.049-0.197-0.049-0.247l-0.247-3.406c-0.099,0.247-0.345,0.395-0.642,0.494c-0.197,0.049-0.395,0.049-0.592,0
		c-0.099,0-0.247-0.049-0.345-0.099c-0.148,0-0.346-0.099-0.494,0c0.099,0.049,0.247,0.099,0.395,0.148h0.049
		c0.543,0.148,1.036,0.395,1.333,0.839c0.099,0.148,0.148,0.247,0.198,0.444l0.049,0.148c0.049,0.395-0.049,0.839-0.247,1.234
		c-0.345,0.592-0.888,0.987-1.579,1.185c-0.592,0.148-1.283,0.198-1.925,0.049c-0.395-0.099-0.79-0.247-1.036-0.592
		c-0.049-0.049-0.099-0.148-0.099-0.198c-0.099-0.346-0.049-0.642,0.197-0.888c0.247-0.247,0.592-0.345,0.938-0.345
		c0.345,0,0.592,0.148,0.938,0.197c0.148,0.049,0.444,0.099,0.543-0.099c0.049,0,0.049-0.049,0.049-0.049
		c-0.148-0.099-0.296-0.148-0.444-0.197c-0.494-0.099-1.036-0.296-1.382-0.642l-0.049-0.099c-0.198-0.296-0.296-0.543-0.247-0.888
		c0-0.346,0.099-0.691,0.345-1.037c0.345-0.493,0.888-0.839,1.53-0.987c0.494-0.148,0.987-0.148,1.431-0.099
		C109.867,28.968,110.36,29.165,110.558,29.609L110.558,29.609z M124.131,32.867c0.296,0,0.543-0.049,0.79-0.197
		c0.346-0.247,0.494-0.691,0.543-1.086c0.049-0.148,0.049-0.345-0.049-0.444c-0.148-0.296-0.642-0.296-0.938-0.296l-0.395,2.024
		H124.131L124.131,32.867z M124.97,28.968h-1.036c-0.198,0-0.345,0.049-0.543,0.049c-0.197,0.099-0.395,0.148-0.543,0.296
		c-0.198,0.247-0.296,0.444-0.345,0.74l-0.691,3.504c-0.049,0.198-0.049,0.444,0,0.642c0.197,0.395,0.543,0.493,0.938,0.543h0.148
		h1.184c0.247,0,0.494,0,0.74-0.049c0.543-0.099,1.037-0.296,1.481-0.592c0.099-0.099,0.247-0.198,0.346-0.296
		c0.345-0.296,0.592-0.691,0.79-1.086c0.198-0.494,0.345-1.086,0.296-1.629c-0.049-0.395-0.197-0.79-0.444-1.135
		c-0.198-0.296-0.444-0.493-0.74-0.642C126.056,29.067,125.513,28.968,124.97,28.968L124.97,28.968z M131.139,28.968
		c0.345,0,0.691,0.049,0.938,0.296l0.099,0.099c0.296,0.346,0.148,0.889-0.197,1.185c-0.198,0.148-0.444,0.247-0.691,0.296
		c-0.345,0-0.691,0-1.036,0v0.049c0.494,0,0.938,0,1.333,0.296c0.148,0.099,0.197,0.247,0.247,0.395
		c0.049,0.345-0.099,0.691-0.395,0.938c-0.296,0.198-0.642,0.247-1.036,0.247h-0.494l-0.049,0.099h0.592
		c0.444,0.049,0.888,0.099,1.135,0.543c0.099,0.296,0.049,0.642-0.148,0.888c-0.197,0.198-0.346,0.296-0.592,0.395
		c-0.198,0.049-0.444,0.049-0.642,0.049h-1.53h-0.148c-0.395-0.049-0.74-0.148-0.888-0.543c-0.099-0.198-0.049-0.444-0.049-0.642
		l0.691-3.504c0.049-0.296,0.148-0.493,0.345-0.74c0.148-0.148,0.345-0.197,0.543-0.296c0.198,0,0.345-0.049,0.543-0.049H131.139
		L131.139,28.968z M134.249,33.706l0.247-1.234l1.135,1.777c0.049,0.099,0.148,0.198,0.296,0.345
		c0.099,0.099,0.247,0.148,0.395,0.198c0.346,0.099,0.691,0.049,0.987-0.148c0.247-0.197,0.395-0.493,0.444-0.79l0.691-3.652
		c0.099-0.395,0.099-0.74-0.247-1.036l-0.099-0.099c-0.346-0.247-0.839-0.198-1.234,0.049l-0.099,0.049
		c-0.247,0.247-0.345,0.493-0.444,0.839l-0.247,1.283l-1.135-1.826l-0.099-0.099c-0.099-0.148-0.198-0.247-0.345-0.345
		c-0.395-0.148-0.839-0.148-1.185,0.099l-0.049,0.049c-0.247,0.247-0.395,0.493-0.444,0.79l-0.691,3.554
		c0,0.247-0.049,0.444,0,0.642c0.099,0.296,0.247,0.493,0.543,0.592c0.197,0.049,0.345,0.099,0.543,0.049
		c0.247-0.049,0.444-0.099,0.642-0.296C134.101,34.298,134.199,34.052,134.249,33.706L134.249,33.706z"/>
	<path fill-rule="evenodd" clip-rule="evenodd" fill="#211915" d="M151.889,0.395c1.727,0,3.159,1.431,3.159,3.159
		c0,1.727-1.431,3.159-3.159,3.159c-1.727,0-3.159-1.431-3.159-3.159C148.731,1.826,150.162,0.395,151.889,0.395L151.889,0.395z
		 M151.889,0c-1.974,0-3.554,1.579-3.554,3.554c0,1.974,1.579,3.554,3.554,3.554c1.974,0,3.554-1.579,3.554-3.554
		C155.443,1.579,153.864,0,151.889,0L151.889,0z M150.557,5.281h0.592v-1.53h0.148c0.197,0,0.345,0.049,0.444,0.099
		c0.148,0.099,0.296,0.247,0.494,0.543l0.691,0.888h0.691l-0.938-1.283c-0.099-0.099-0.198-0.198-0.247-0.247
		c-0.049-0.049-0.148-0.099-0.197-0.099c0.247-0.099,0.444-0.198,0.592-0.345c0.099-0.099,0.148-0.296,0.148-0.543
		c0-0.296-0.099-0.493-0.296-0.691c-0.247-0.148-0.543-0.247-0.938-0.247h-1.184V5.281L150.557,5.281z M151.149,3.356h0.444
		c0.296,0,0.493-0.049,0.592-0.148c0.148-0.099,0.198-0.247,0.198-0.395c0-0.197-0.049-0.346-0.148-0.444
		c-0.148-0.049-0.346-0.099-0.642-0.099h-0.444V3.356L151.149,3.356z"/>
</g>
</svg>
