<?xml version="1.0" encoding="utf-8"?>
<!-- Generator: Adobe Illustrator 22.0.1, SVG Export Plug-In . SVG Version: 6.00 Build 0)  -->
<svg version="1.1" id="Camada_1" xmlns="http://www.w3.org/2000/svg" xmlns:xlink="http://www.w3.org/1999/xlink" x="0px" y="0px"
	 width="130.389px" height="38px" viewBox="0 0 130.389 38" enable-background="new 0 0 130.389 38" xml:space="preserve">
<g>
	<path fill="#004FA2" d="M95.876,17.272c2.431-2.986,5.789-3.986,9.341-2.91c2.051,0.621,3.443,2.101,3.479,4.058
		c0.076,4.145,0.023,8.292,0.023,12.548c-2.221,0-4.396,0-6.725,0c-0.021-0.413-0.063-0.85-0.064-1.287
		c-0.006-2.615,0.008-5.23-0.007-7.845c-0.009-1.627-0.809-2.293-2.689-2.295c-1.941-0.002-2.956,0.793-2.968,2.37
		c-0.022,2.905-0.02,5.81-0.033,8.716c0,0.077-0.05,0.154-0.116,0.341c-2.132,0-4.306,0-6.628,0
		c-0.019-0.412-0.055-0.85-0.056-1.288c-0.006-2.491,0.006-4.981-0.006-7.472c-0.01-2.075-0.565-2.636-2.654-2.708
		c-0.37-0.013-0.743,0.008-1.111,0.05c-1.401,0.158-2.062,0.871-2.072,2.298c-0.018,2.573-0.005,5.147-0.006,7.721
		c0,0.447,0,0.893,0,1.424c-2.218,0-4.316,0-6.532,0c0-5.452,0-10.901,0-16.444c2.124,0,4.252,0,6.474,0
		c0.035,0.725,0.068,1.414,0.118,2.47c1.761-2.189,3.919-2.996,6.392-3.048C92.572,13.917,94.715,14.608,95.876,17.272z"/>
	<path fill="#004FA2" d="M18.95,0C29.4-0.006,37.969,8.543,37.971,18.975C37.974,29.384,29.343,38.026,18.969,38
		C8.628,37.974,0.051,29.41,0,19.062C-0.051,8.652,8.545,0.006,18.95,0z M32.398,31.51c-0.788,0.293-1.28,0.483-1.777,0.658
		c-3.314,1.173-6.664,1.281-9.979,0.107c-2.635-0.933-3.697-2.606-3.7-5.395c-0.001-1.867-0.077-3.739,0.027-5.601
		c0.07-1.243-0.381-1.538-1.548-1.487c-2.112,0.091-4.232,0.03-6.348,0.022c-0.354-0.001-0.709-0.052-1.042-0.078
		c0-1.892,0-3.656,0-5.596c9.64,0,19.187,0,28.768,0C35.471,7.654,29.093,0.951,20.396,0.432C10.992-0.129,2.959,5.809,0.898,14.585
		C-1.143,23.272,3.199,32.206,11.16,35.89C19.102,39.565,28.245,36.858,32.398,31.51z M37.73,19.88
		c-4.571,0-8.752-0.013-12.933,0.033c-0.245,0.003-0.684,0.481-0.695,0.751c-0.061,1.533-0.091,3.075,0.008,4.605
		c0.094,1.46,0.929,2.176,2.402,2.39c3.155,0.459,6.08-0.319,8.878-1.674c0.507-0.246,1.067-0.768,1.224-1.279
		C37.067,23.226,37.328,21.687,37.73,19.88z"/>
	<path fill="#004FA2" d="M118.023,19.758c-2.387,0-4.699,0-7.004,0c-0.211-2.395,1.37-4.468,4.162-5.111
		c3.916-0.902,7.876-0.993,11.794,0.068c2.335,0.633,3.41,2.115,3.412,4.551c0.004,3.858,0.001,7.715,0.001,11.79
		c-2.069,0-4.125,0.069-6.167-0.07c-0.332-0.023-0.6-0.971-0.892-1.482c-2.524,2.425-5.671,2.799-9.017,2.224
		c-2.481-0.426-3.925-2.197-4.068-4.782c-0.132-2.386,1.225-4.392,3.65-4.951c2.451-0.566,4.961-0.876,7.446-1.297
		c0.082-0.014,0.166-0.012,0.247-0.028c1.526-0.31,2.332-1.108,2.129-2.105c-0.202-0.997-1.488-1.645-2.834-1.428
		C119.28,17.395,118.62,17.988,118.023,19.758z M123.501,22.933c-1.447,0.413-2.831,0.778-4.196,1.204
		c-1.442,0.45-2.173,1.712-1.773,2.955c0.322,0.998,1.608,1.527,2.94,1.209C122.888,27.724,123.882,25.948,123.501,22.933z"/>
	<path fill="#004FA2" d="M54.861,14.492c2.304,0,4.456,0,6.755,0c0.021,0.461,0.058,0.898,0.059,1.336
		c0.002,2.948-0.012,5.895-0.006,8.843c0.003,1.742,0.629,2.55,2.068,2.726c1.65,0.201,3.16-0.664,3.526-2.094
		c0.152-0.593,0.195-1.226,0.2-1.842c0.025-2.823,0.019-5.646,0.029-8.469c0-0.119,0.053-0.237,0.102-0.445c2.12,0,4.25,0,6.453,0
		c0,5.455,0,10.877,0,16.416c-2.116,0-4.243,0-6.434,0c-0.084-0.536-0.169-1.077-0.28-1.783c-0.777,0.651-1.33,1.298-2.03,1.667
		c-2.532,1.336-5.174,1.393-7.786,0.263c-1.674-0.725-2.577-2.194-2.623-3.938C54.788,22.988,54.861,18.802,54.861,14.492z"/>
	<path fill="#004FA2" d="M53.333,14.207c0,2.169,0,4.215,0,6.148c-1.352,0.06-2.654-0.06-3.869,0.209
		c-2.151,0.477-2.993,1.719-2.994,3.911c-0.001,2.145,0,4.29,0,6.519c-2.299,0-4.477,0-6.751,0c0-5.458,0-10.903,0-16.444
		c2.177,0,4.353,0,6.679,0c0.043,0.837,0.088,1.71,0.153,2.969C48.26,14.796,50.548,14.049,53.333,14.207z"/>
	<path fill="#004FA2" d="M19.515,2.438c1.828,3.292,0.966,6.756,0.104,10.159c-0.662-0.624-1.458-1.325-2.197-2.082
		c-1.145-1.173-1.291-2.878-0.371-4.212c0.47-0.682,1.047-1.291,1.491-1.987C18.954,3.671,19.252,2.954,19.515,2.438z"/>
	<path fill="#004FA2" d="M21.394,4.007c0.701,0.695,1.442,1.354,2.092,2.094c0.777,0.884,0.84,1.9,0.113,2.834
		c-0.783,1.005-1.663,1.934-2.623,2.889c0.702-2.57,1.973-5.121,0.088-7.753C21.174,4.049,21.284,4.028,21.394,4.007z"/>
</g>
</svg>
